<?xml version="1.0" standalone="no"?>
<!DOCTYPE svg PUBLIC "-//W3C//DTD SVG 20010904//EN"
 "http://www.w3.org/TR/2001/REC-SVG-20010904/DTD/svg10.dtd">
<svg version="1.0" xmlns="http://www.w3.org/2000/svg"
 width="326.000000pt" height="294.000000pt" viewBox="0 0 326.000000 294.000000"
 preserveAspectRatio="xMidYMid meet">
<metadata>
Created by potrace 1.16, written by Peter Selinger 2001-2019
</metadata>
<g transform="translate(0.000000,294.000000) scale(0.100000,-0.100000)"
fill="#000000" stroke="none">
<path d="M2178 2363 c0 -16 -1 -36 0 -45 1 -13 -6 -18 -23 -18 -16 0 -25 -6
-25 -15 0 -8 5 -15 11 -15 6 0 9 -6 6 -12 -2 -7 -10 -12 -16 -10 -6 1 -11 -5
-11 -13 0 -8 7 -15 15 -15 34 0 12 -19 -30 -26 -50 -7 -54 -13 -24 -34 11 -8
33 -26 47 -39 l27 -23 -25 5 c-30 6 -71 -4 -73 -18 0 -5 12 -12 28 -15 46 -8
43 -30 -4 -30 -23 0 -41 -4 -41 -10 0 -5 5 -10 10 -10 6 0 10 -8 10 -18 0 -15
-6 -17 -35 -14 -19 2 -35 1 -35 -3 0 -14 46 -44 68 -45 12 0 22 -5 22 -11 0
-6 9 -9 20 -6 14 3 20 0 20 -10 0 -12 -7 -14 -27 -8 -63 15 -93 17 -93 5 0
-13 -34 10 -100 69 -49 45 -55 47 -74 29 -7 -7 -43 -40 -81 -73 -37 -33 -80
-71 -94 -85 -98 -93 -143 -131 -150 -128 -5 2 -31 23 -58 48 -26 25 -77 70
-113 100 -35 30 -76 65 -90 78 -13 12 -28 22 -33 22 -6 0 -93 -75 -127 -110
-3 -3 -36 -32 -75 -65 -38 -33 -83 -74 -100 -90 -16 -17 -83 -77 -148 -133
-64 -57 -117 -107 -117 -113 0 -5 11 -9 25 -9 16 0 46 20 87 58 35 31 88 77
118 102 30 24 74 62 97 83 22 21 55 49 73 62 18 13 53 43 79 67 25 24 57 51
70 61 24 16 26 15 71 -26 26 -23 82 -71 124 -107 l78 -65 -116 -111 c-64 -61
-116 -114 -116 -117 0 -11 48 -8 55 4 4 6 26 24 48 40 23 17 62 49 87 72 25
24 70 63 100 87 30 25 62 52 70 61 8 8 42 37 75 64 33 26 84 70 113 96 29 27
59 49 65 49 7 0 26 -12 43 -27 27 -25 88 -76 222 -187 26 -21 73 -61 106 -89
32 -28 73 -63 91 -77 18 -14 60 -49 94 -77 58 -49 93 -64 105 -45 4 7 -78 87
-169 166 -24 20 -26 25 -12 26 10 0 20 -7 23 -15 4 -8 10 -15 15 -15 4 0 29
-20 55 -45 25 -25 50 -45 56 -45 13 0 63 40 52 41 -5 1 -13 2 -19 3 -20 2 -15
21 6 22 36 2 43 20 14 42 -20 16 -24 26 -19 46 4 19 2 26 -8 26 -8 0 -22 6
-32 13 -15 11 -16 17 -6 33 9 15 8 28 -9 67 -21 48 -41 62 -41 29 0 -25 -34
-55 -57 -50 -29 5 -28 37 2 48 14 5 33 23 43 39 9 17 25 32 34 35 33 8 19 26
-20 26 -21 0 -41 3 -45 6 -3 3 9 19 26 35 l32 28 -39 1 c-36 0 -38 2 -32 25 6
22 3 25 -23 25 -37 0 -57 30 -41 60 6 11 17 20 25 20 8 0 15 5 15 10 0 6 -11
10 -25 10 -14 0 -28 7 -31 15 -4 8 -17 15 -30 15 -25 0 -32 18 -13 37 8 8 16
9 29 1 13 -9 22 -6 39 11 l22 22 -28 -3 c-35 -4 -44 26 -11 37 21 7 20 8 -12
14 -29 5 -35 10 -35 31 0 30 -25 70 -42 70 -7 0 -14 -12 -15 -27z"/>
<path d="M512 1137 c-26 -27 -32 -41 -32 -78 0 -37 6 -51 30 -76 33 -33 87
-48 126 -33 42 16 30 39 -20 37 -58 -2 -86 22 -86 74 0 53 31 81 85 77 30 -2
40 1 40 12 0 11 -14 16 -55 18 -51 3 -58 0 -88 -31z"/>
<path d="M757 1142 c-23 -24 -27 -37 -27 -83 0 -47 4 -59 28 -82 38 -36 80
-43 126 -22 68 33 88 120 40 182 -23 31 -29 33 -83 33 -50 0 -61 -4 -84 -28z
m120 -17 c26 -18 38 -67 23 -94 -32 -60 -112 -60 -124 1 -16 82 41 135 101 93z"/>
<path d="M1010 1155 c0 -11 12 -15 50 -15 28 0 50 -5 50 -10 0 -6 -22 -41 -50
-79 -69 -95 -68 -101 25 -101 41 0 78 -1 83 -2 4 -2 8 7 10 20 3 20 0 22 -47
22 -39 0 -51 4 -51 15 0 8 3 15 8 15 4 0 23 23 42 50 19 27 38 50 43 50 4 0 7
11 7 25 0 25 -1 25 -85 25 -69 0 -85 -3 -85 -15z"/>
<path d="M1240 1162 c0 -4 4 -12 9 -17 30 -32 61 -108 61 -149 0 -42 2 -46 25
-46 22 0 25 4 25 40 0 36 19 82 56 135 20 28 17 45 -6 45 -13 0 -27 -14 -40
-40 -11 -22 -23 -40 -26 -40 -9 0 -43 44 -44 56 0 19 -60 35 -60 16z"/>
<path d="M1510 1060 c0 -103 1 -110 20 -110 17 0 20 7 20 40 0 33 4 42 23 49
20 8 66 5 76 -4 2 -3 5 -22 6 -42 2 -30 7 -39 24 -41 20 -3 21 0 21 107 0 104
-1 111 -20 111 -11 0 -20 -6 -21 -12 -1 -7 -2 -20 -3 -28 -2 -8 -3 -23 -4 -32
-2 -14 -11 -18 -46 -18 -48 0 -56 9 -56 61 0 22 -5 29 -20 29 -19 0 -20 -7
-20 -110z"/>
<path d="M1807 1145 c-23 -22 -27 -33 -27 -84 0 -50 4 -61 28 -83 50 -47 113
-45 163 4 39 40 41 105 3 155 -23 31 -29 33 -82 33 -47 0 -62 -4 -85 -25z
m121 -25 c43 -40 38 -93 -12 -125 -34 -23 -82 -4 -90 37 -17 84 47 139 102 88z"/>
<path d="M2080 1077 c0 -83 2 -95 22 -111 25 -22 96 -24 129 -3 27 17 41 70
37 142 -3 52 -6 60 -23 60 -18 0 -21 -8 -25 -75 -6 -83 -10 -95 -41 -103 -40
-11 -59 24 -59 108 0 68 -2 75 -20 75 -19 0 -20 -7 -20 -93z"/>
<path d="M2347 1144 c-29 -39 -7 -78 56 -99 33 -11 56 -39 43 -52 -4 -4 -30
-7 -57 -6 -41 1 -50 -2 -47 -15 4 -20 51 -33 92 -25 86 16 90 106 6 126 -76
18 -79 67 -5 67 33 0 45 4 45 15 0 12 -13 15 -57 15 -50 -1 -61 -4 -76 -26z"/>
<path d="M2577 1164 c-4 -4 -7 -54 -7 -111 l0 -103 73 0 c78 0 89 4 80 26 -3
10 -22 14 -59 14 -50 0 -54 2 -54 24 0 24 21 36 68 36 13 0 22 6 22 15 0 10
-10 15 -29 15 -42 0 -61 10 -61 31 0 19 18 27 80 31 19 2 35 8 35 13 0 11
-137 20 -148 9z"/>
</g>
</svg>
