<?xml version="1.0" standalone="no"?>
<!DOCTYPE svg PUBLIC "-//W3C//DTD SVG 20010904//EN"
 "http://www.w3.org/TR/2001/REC-SVG-20010904/DTD/svg10.dtd">
<svg version="1.0" xmlns="http://www.w3.org/2000/svg"
 width="1280.000000pt" height="436.000000pt" viewBox="0 0 1280.000000 436.000000"
 preserveAspectRatio="xMidYMid meet">

<g transform="translate(0.000000,436.000000) scale(0.100000,-0.100000)"
fill="#000000" stroke="none">
<path d="M4936 3468 c-12 -17 -16 -48 -16 -125 0 -118 -5 -127 -78 -137 -28
-3 -55 -13 -62 -21 -17 -21 -8 -59 18 -70 12 -5 22 -17 22 -25 -1 -24 -25 -50
-47 -50 -32 0 -48 -26 -35 -54 8 -17 22 -26 51 -31 81 -14 31 -54 -102 -81
-102 -21 -137 -33 -137 -49 0 -8 33 -40 72 -72 80 -63 123 -100 177 -151 l36
-33 -35 8 c-110 25 -265 -5 -258 -51 2 -16 17 -25 63 -39 80 -24 109 -39 113
-59 5 -26 -34 -40 -125 -46 -93 -5 -126 -20 -104 -46 7 -9 20 -16 27 -16 16 0
27 -37 22 -71 -3 -23 -6 -24 -110 -27 -72 -2 -108 -6 -108 -14 0 -19 76 -84
131 -112 29 -14 68 -26 87 -26 25 0 41 -8 62 -30 25 -26 34 -30 77 -28 47 3
48 3 48 -27 0 -40 -21 -42 -133 -16 -148 35 -198 37 -232 13 l-28 -21 -59 39
c-56 37 -158 121 -295 242 -58 51 -102 78 -129 78 -5 0 -58 -44 -117 -98 -59
-53 -161 -145 -226 -202 -66 -58 -194 -174 -285 -259 -224 -208 -346 -316
-399 -353 -38 -26 -47 -29 -67 -18 -12 7 -96 78 -187 159 -90 80 -206 182
-258 226 -51 44 -148 127 -214 185 -177 155 -235 200 -254 200 -26 0 -195
-142 -407 -341 -38 -37 -101 -93 -140 -125 -104 -87 -326 -285 -445 -399 -58
-55 -213 -194 -345 -310 -132 -116 -291 -261 -355 -322 -110 -108 -114 -114
-96 -128 54 -42 153 3 309 140 124 108 371 321 432 370 95 78 291 248 305 265
8 10 191 161 276 228 43 34 106 87 139 118 119 110 265 234 296 249 17 9 41
14 54 11 13 -3 63 -41 111 -84 153 -134 444 -383 557 -475 59 -49 107 -92 107
-96 0 -4 -48 -53 -108 -108 -59 -55 -224 -216 -367 -356 -275 -271 -279 -276
-195 -277 55 0 98 16 132 50 17 18 77 66 132 108 124 94 202 159 331 277 55
50 179 158 275 238 96 81 211 180 256 219 44 40 163 142 265 225 101 84 209
176 239 203 97 90 231 190 254 190 30 0 99 -45 192 -127 89 -78 361 -306 624
-523 96 -79 265 -221 375 -315 110 -94 256 -217 325 -272 69 -55 173 -140 232
-189 164 -137 270 -194 323 -174 14 5 25 14 25 19 0 10 -70 93 -119 141 -82
80 -239 226 -321 299 -52 46 -110 97 -127 113 -41 36 -42 48 -3 48 29 0 63
-24 86 -60 5 -9 27 -27 49 -41 22 -15 88 -69 145 -120 149 -134 169 -149 193
-149 27 0 157 95 157 114 0 8 -15 16 -36 19 -77 13 -79 60 -2 72 77 12 78 13
78 57 0 36 -7 48 -51 95 l-51 54 7 74 7 74 -28 6 c-71 16 -144 61 -144 90 0 7
10 34 21 60 19 43 20 54 10 100 -23 100 -111 255 -146 255 -13 0 -25 -30 -25
-65 0 -12 -12 -39 -27 -62 -52 -81 -160 -111 -202 -56 -36 44 -15 77 94 146
27 18 64 52 82 77 61 86 96 120 139 140 24 10 44 24 44 29 0 22 -49 41 -120
46 -121 10 -140 14 -140 33 0 9 38 54 85 99 l85 81 -98 7 c-53 3 -103 8 -110
11 -10 3 -12 22 -10 71 l3 68 -63 7 c-78 9 -122 33 -145 80 -15 31 -16 43 -7
79 14 50 49 87 90 95 16 4 35 13 42 21 18 22 -15 43 -65 43 -47 0 -73 13 -113
56 -24 26 -42 34 -83 40 -84 11 -103 47 -55 103 29 35 59 39 106 15 16 -9 40
-13 52 -10 18 5 126 100 126 112 0 2 -20 1 -44 -2 -129 -18 -185 58 -80 109
24 11 44 24 44 29 0 4 -17 10 -37 13 -120 21 -137 34 -147 115 -9 69 -34 125
-76 173 -37 42 -62 47 -84 15z"/>
<path d="M6393 1080 c-41 -9 -68 -27 -116 -76 -78 -79 -91 -106 -95 -211 -3
-72 0 -104 13 -139 22 -59 99 -135 172 -171 51 -24 69 -28 148 -28 101 0 167
24 173 63 5 31 -26 42 -142 51 -103 9 -146 23 -178 58 -64 70 -64 228 -1 303
41 49 78 62 193 69 105 6 105 6 108 33 3 24 -1 28 -35 36 -53 14 -201 21 -240
12z"/>
<path d="M7077 1079 c-50 -12 -121 -70 -153 -126 -21 -35 -27 -60 -31 -140 -8
-140 6 -197 62 -255 92 -96 196 -132 305 -104 103 27 182 92 231 191 20 41 24
65 24 136 0 76 -3 92 -33 150 -41 81 -92 135 -140 149 -44 12 -212 12 -265 -1z
m222 -112 c67 -45 109 -156 89 -237 -13 -49 -68 -115 -119 -140 -51 -27 -133
-27 -176 0 -113 68 -99 316 21 392 45 28 130 21 185 -15z"/>
<path d="M7748 1083 c-41 -5 -61 -23 -52 -46 8 -22 24 -26 122 -33 128 -8 152
-13 152 -31 0 -21 -24 -60 -141 -228 -109 -158 -129 -193 -129 -229 0 -44 28
-50 252 -54 l207 -4 6 35 c14 76 -3 85 -167 86 -56 1 -81 5 -93 17 -19 20 -11
51 20 76 13 10 65 72 115 139 51 66 98 123 106 126 18 7 37 79 29 110 -3 13
-17 28 -31 33 -24 9 -316 11 -396 3z"/>
<path d="M8354 1075 c-4 -9 6 -34 22 -56 68 -97 85 -126 114 -197 38 -89 60
-187 60 -264 0 -74 24 -103 77 -95 19 3 40 11 47 17 8 5 16 46 19 93 10 126
38 197 141 361 62 99 69 131 31 148 -52 23 -92 -13 -179 -164 -16 -27 -32 -51
-37 -54 -15 -9 -86 74 -116 135 -21 42 -35 58 -67 72 -51 23 -104 25 -112 4z"/>
<path d="M9138 1068 c-14 -26 -19 -521 -6 -569 9 -31 30 -42 63 -33 29 7 34
18 41 107 9 116 21 133 107 153 31 7 146 -3 165 -15 7 -4 17 -47 23 -97 12
-103 30 -137 77 -142 50 -5 54 17 50 326 -3 292 -3 291 -54 292 -43 0 -55 -21
-68 -123 -8 -63 -18 -104 -29 -114 -12 -12 -37 -17 -105 -17 -137 -1 -155 15
-166 153 -4 41 -11 80 -17 88 -19 22 -67 16 -81 -9z"/>
<path d="M10090 1081 c-54 -11 -92 -35 -137 -84 -50 -54 -58 -86 -57 -227 1
-137 19 -180 101 -244 75 -59 135 -79 221 -74 119 7 219 74 273 184 27 55 32
75 31 137 0 39 -8 91 -16 115 -22 60 -94 160 -130 180 -34 18 -223 27 -286 13z
m193 -111 c52 -32 103 -104 113 -157 9 -47 -2 -95 -34 -142 -53 -79 -133 -118
-206 -101 -54 12 -87 38 -114 91 -20 38 -23 55 -19 124 4 96 30 152 84 190 54
36 114 34 176 -5z"/>
<path d="M10769 1074 c-17 -20 -25 -307 -11 -427 11 -99 25 -122 97 -160 34
-19 56 -22 150 -22 99 0 115 3 155 25 84 47 119 131 127 305 11 224 -26 326
-96 268 -18 -16 -23 -41 -40 -210 -24 -236 -36 -265 -118 -284 -112 -26 -163
68 -163 304 -1 126 -11 195 -31 208 -22 14 -55 10 -70 -7z"/>
<path d="M11607 1080 c-47 -9 -92 -51 -113 -106 -36 -93 15 -170 151 -228 91
-40 142 -76 156 -114 18 -47 -5 -56 -151 -62 -146 -6 -164 -14 -140 -58 37
-65 220 -82 331 -31 71 33 101 75 107 146 8 92 -49 153 -173 188 -80 23 -128
51 -149 86 -16 28 -16 32 -2 54 19 29 64 42 168 50 46 4 81 12 88 20 18 21 8
48 -20 56 -33 9 -205 9 -253 -1z"/>
<path d="M12213 1083 c-19 -3 -37 -12 -43 -23 -6 -11 -11 -138 -13 -307 l-2
-288 115 -3 c159 -5 297 6 315 25 20 20 19 30 -8 57 -21 21 -36 24 -148 31
-68 4 -132 11 -141 16 -12 7 -18 22 -18 45 0 73 26 92 149 108 91 12 116 29
95 63 -8 13 -35 20 -100 29 -96 12 -132 27 -140 61 -16 64 20 89 151 104 146
17 210 48 129 63 -45 9 -251 26 -284 24 -14 -1 -40 -3 -57 -5z"/>
</g>
</svg>
